<?xml version="1.0" encoding="UTF-8" standalone="no"?>
<!-- Created with Inkscape (http://www.inkscape.org/) -->

<svg
   width="210mm"
   height="297mm"
   viewBox="0 0 210 297"
   version="1.1"
   id="svg5"
   inkscape:version="1.2.2 (b0a8486541, 2022-12-01)"
   sodipodi:docname="statictask.svg"
   xmlns:inkscape="http://www.inkscape.org/namespaces/inkscape"
   xmlns:sodipodi="http://sodipodi.sourceforge.net/DTD/sodipodi-0.dtd"
   xmlns:xlink="http://www.w3.org/1999/xlink"
   xmlns="http://www.w3.org/2000/svg"
   xmlns:svg="http://www.w3.org/2000/svg">
  <sodipodi:namedview
     id="namedview7"
     pagecolor="#ffffff"
     bordercolor="#000000"
     borderopacity="0.25"
     inkscape:showpageshadow="2"
     inkscape:pageopacity="0.0"
     inkscape:pagecheckerboard="0"
     inkscape:deskcolor="#d1d1d1"
     inkscape:document-units="mm"
     showgrid="false"
     inkscape:zoom="0.93566846"
     inkscape:cx="263.44802"
     inkscape:cy="605.4495"
     inkscape:window-width="1916"
     inkscape:window-height="1152"
     inkscape:window-x="0"
     inkscape:window-y="0"
     inkscape:window-maximized="1"
     inkscape:current-layer="layer1" />
  <defs
     id="defs2">
    <linearGradient
       inkscape:collect="always"
       id="linearGradient4122">
      <stop
         style="stop-color:#008080;stop-opacity:1;"
         offset="0"
         id="stop4118" />
      <stop
         style="stop-color:#f1a317;stop-opacity:0.48706141;"
         offset="1"
         id="stop4120" />
    </linearGradient>
    <linearGradient
       inkscape:collect="always"
       xlink:href="#linearGradient4122"
       id="linearGradient4124"
       x1="5.6711277"
       y1="120.23374"
       x2="184.37389"
       y2="120.23374"
       gradientUnits="userSpaceOnUse" />
  </defs>
  <g
     inkscape:label="Layer 1"
     inkscape:groupmode="layer"
     id="layer1">
    <g
       id="g2080"
       style="fill-opacity:1;fill:url(#linearGradient4124)"
       inkscape:export-filename="statictask.svg"
       inkscape:export-xdpi="96"
       inkscape:export-ydpi="96">
      <path
         style="fill:url(#linearGradient4124);fill-opacity:1;stroke-width:0.264583"
         id="path367"
         d="m 19.791326,96.514141 c -2.687989,-0.14771 -5.284885,0.55946 -7.796757,1.43405 -2.1340497,0.85689 -4.2076127,1.94869 -5.8042417,3.629409 -1.173779,1.65476 -0.179672,2.5496 1.217143,3.54408 1.475989,0.79544 2.9096347,1.67503 4.4279647,2.38632 0.598546,0.2804 2.338104,0.44423 2.919738,0.47629 1.962137,0.10813 3.925599,-0.073 5.879751,-0.21957 3.257229,-0.23121 6.602415,-0.67294 9.833784,0.0515 0.539372,0.12093 1.059307,0.3163 1.588963,0.47445 0.455256,0.21801 1.799241,0.91265 1.365771,0.65402 -0.706082,-0.42128 -1.387228,-0.94709 -2.185701,-1.14323 -0.389202,-0.0956 0.61468,0.51935 0.87753,0.82189 0.895697,1.03092 0.920372,1.57875 0.89549,2.868 -0.128944,0.37889 -0.209666,0.77779 -0.386831,1.13668 -1.447882,2.93302 -4.883007,4.88001 -7.597415,6.42587 -3.510169,1.72004 -7.350001,3.21329 -11.338793,2.9322 -0.675219,-0.0476 -1.337601,-0.2087 -2.006401,-0.31306 0,0 3.060509,2.28984 3.060509,2.28984 v 0 c 0.678058,0.0858 1.351396,0.22672 2.034172,0.25731 4.02907,0.18055 7.882578,-1.35234 11.422922,-3.10375 2.850587,-1.62862 6.262839,-3.55605 7.829267,-6.60491 0.199909,-0.3891 0.302596,-0.82091 0.453896,-1.23136 0.06963,-0.9968 0.207568,-1.25735 -0.187294,-2.19985 -1.08726,-2.5952 -4.91133,-4.07682 -7.292676,-5.14061 -0.536366,-0.14247 -1.064643,-0.3199 -1.609092,-0.42742 -3.25437,-0.6427 -6.593795,-0.19511 -9.863595,0.0297 -1.952078,0.13213 -3.913815,0.2982 -5.870787,0.13521 -0.527068,-0.0439 -1.053552,-0.11125 -1.571794,-0.21687 -0.4442167,-0.0905 -1.6099477,-0.70895 -1.3087007,-0.37017 0.59781,0.6723 1.5154887,0.96993 2.2732337,1.45489 -1.1821157,-0.71683 -2.5341027,-1.44263 -1.4977057,-2.9197 1.5402217,-1.64181 3.5605457,-2.69609 5.6376937,-3.51196 2.507893,-0.843149 5.108588,-1.510459 7.779097,-1.239069 0,0 -3.179141,-2.36025 -3.179141,-2.36025 z" />
      <path
         style="fill:url(#linearGradient4124);fill-opacity:1;stroke-width:0.264583"
         id="path364"
         d="m 46.00099,92.077361 c 0.483691,4.01632 0.848337,8.045599 1.203146,12.074939 0.216961,2.76697 0.481017,5.53078 0.662778,8.30043 0,0 3.51966,1.75975 3.51966,1.75975 v 0 c -0.241853,-2.78961 -0.548934,-5.57336 -0.779008,-8.36414 -0.364059,-4.00459 -0.734123,-8.008739 -1.078706,-12.015029 0,0 -3.52787,-1.75595 -3.52787,-1.75595 z" />
      <path
         style="fill:url(#linearGradient4124);fill-opacity:1;stroke-width:0.264583"
         id="path361"
         d="m 43.056911,104.13238 c 2.273541,-0.69396 4.585218,-1.24036 6.935369,-1.59393 0,0 -3.181215,-2.2365 -3.181215,-2.2365 v 0 c -2.371584,0.38719 -4.702167,0.95838 -7.019448,1.59202 0,0 3.265294,2.23841 3.265294,2.23841 z" />
      <path
         style="fill:url(#linearGradient4124);fill-opacity:1;stroke-width:0.264583"
         id="path358"
         d="m 64.658727,108.13599 c 0.295727,0.0269 0.594783,0.0288 0.887185,0.0806 0.36943,0.0654 0.737558,0.14884 1.092695,0.26979 0.402785,0.13719 1.520028,0.7492 1.17363,0.50209 -0.672928,-0.48004 -1.388681,-0.92529 -2.164969,-1.20927 -0.425336,-0.1556 0.739971,0.52413 1.087147,0.81498 0.33156,0.27776 0.630626,0.59215 0.945941,0.88822 1.131713,1.19003 2.08389,2.54706 2.663367,4.08821 0.182848,0.77276 0.456287,0.8361 -0.335492,0.8213 -1.927124,-0.15562 -3.842398,-0.38209 -5.777304,-0.41681 -1.896297,-0.006 -3.695141,0.41097 -5.27531,1.46465 -0.803066,0.65485 -1.48341,1.46176 -1.504471,2.53353 0.152152,0.48358 0.02622,0.25779 0.404524,0.66174 0,0 3.688956,1.45395 3.688956,1.45395 v 0 c -0.440584,-0.17739 -0.26942,-0.0515 -0.542155,-0.3351 -0.166209,-0.92353 0.620641,-1.64864 1.266185,-2.18787 1.542251,-0.97964 3.293851,-1.31826 5.113358,-1.28982 1.962304,0.06 3.90329,0.34791 5.862741,0.40992 0.928894,-0.20949 0.926026,-0.61342 0.685948,-1.4414 -0.555651,-1.6084 -1.519774,-3.02376 -2.657467,-4.28137 -2.616205,-2.59826 -6.056326,-4.93141 -9.821135,-5.13617 0,0 3.206626,2.30883 3.206626,2.30883 z" />
      <path
         style="fill:url(#linearGradient4124);fill-opacity:1;stroke-width:0.264583"
         id="path355"
         d="m 80.615343,88.414791 c 0.633219,4.54681 1.145915,9.10885 1.589042,13.677739 0.231905,2.49296 0.370597,4.99273 0.473728,7.49382 0,0 3.46247,1.74296 3.46247,1.74296 v 0 c -0.14236,-2.52128 -0.31348,-5.04098 -0.55419,-7.55506 -0.4515,-4.541449 -0.97487,-9.074879 -1.4442,-13.614399 0,0 -3.52685,-1.74506 -3.52685,-1.74506 z" />
      <path
         style="fill:url(#linearGradient4124);fill-opacity:1;stroke-width:0.264583"
         id="path352"
         d="m 79.517034,102.54087 c 0.264652,0.0488 0.529301,0.0976 0.793953,0.14642 0,0 -3.135257,-2.367 -3.135257,-2.367 v 0 c -0.273973,-0.0511 -0.547946,-0.10231 -0.821917,-0.15346 0,0 3.163221,2.37404 3.163221,2.37404 z" />
      <path
         style="fill:url(#linearGradient4124);fill-opacity:1;stroke-width:0.264583"
         id="path349"
         d="m 98.724203,106.02543 c 0.0514,2.31694 -0.0126,4.63434 -0.12087,6.94868 -0.0421,0.79898 -0.10227,1.59678 -0.16436,2.39438 0,0 3.502217,1.81443 3.502217,1.81443 v 0 c 0.0467,-0.80691 0.0938,-1.6138 0.13297,-2.42113 0.0948,-2.31348 0.14442,-4.62813 0.1689,-6.94341 0,0 -3.518857,-1.79295 -3.518857,-1.79295 z" />
      <path
         style="fill:url(#linearGradient4124);fill-opacity:1;stroke-width:0.264583"
         id="path346"
         d="m 122.4478,104.07543 c -1.74061,0.1366 -3.53253,0.27445 -5.15354,0.9834 -0.32993,0.1443 -0.63806,0.33405 -0.95709,0.50107 -1.82664,1.20346 -2.68014,2.81761 -3.11469,4.90591 -0.35708,3.82874 1.52962,3.66601 5.09534,5.55256 1.58519,0.0634 0.73805,0.0722 2.54074,-0.065 0,0 -3.14757,-2.26046 -3.14757,-2.26046 v 0 c -1.78599,0.0608 -0.95517,0.10797 -2.49504,-0.0857 0.86846,0.55916 1.73821,1.11633 2.60539,1.67748 0.18239,0.11802 -0.39164,-0.20043 -0.55099,-0.34808 -0.70971,-0.65762 -0.64053,-1.75489 -0.58753,-2.62212 0.36874,-1.99221 1.16122,-3.499 2.9207,-4.60904 0.30827,-0.15261 0.60664,-0.32713 0.92483,-0.45783 1.61925,-0.66511 3.40015,-0.77395 5.12608,-0.8634 0,0 -3.20663,-2.30883 -3.20663,-2.30883 z" />
      <path
         style="fill:url(#linearGradient4124);fill-opacity:1;stroke-width:0.264583"
         id="path1483"
         d="m 19.402006,145.16357 c 4.823796,0.0219 9.646907,-0.007 14.470338,-0.0711 10.001925,-0.21765 20.002574,-0.43891 30.007155,-0.45851 0,0 -2.803932,-2.03581 -2.803932,-2.03581 v 0 c -10.026896,0.0445 -20.050078,0.28912 -30.076061,0.41054 -4.934619,0.0127 -9.868914,-0.007 -14.801303,-0.17282 0,0 3.203803,2.3277 3.203803,2.3277 z" />
      <path
         style="fill:url(#linearGradient4124);fill-opacity:1;stroke-width:0.264583"
         id="path1483-3"
         d="m 139.8964,105.62585 c 4.82379,0.0219 9.6469,-0.007 14.47034,-0.0711 10.00192,-0.21765 20.00257,-0.43891 30.00715,-0.45851 0,0 -2.80393,-2.03581 -2.80393,-2.03581 v 0 c -10.0269,0.0445 -20.05008,0.28912 -30.07606,0.41054 -4.93462,0.0127 -9.86892,-0.007 -14.80131,-0.17282 0,0 3.20381,2.3277 3.20381,2.3277 z"
         inkscape:export-filename="statictask.svg"
         inkscape:export-xdpi="96"
         inkscape:export-ydpi="96" />
      <path
         style="fill:url(#linearGradient4124);fill-opacity:1;stroke-width:0.264583"
         id="path2041"
         d="m 78.203269,124.72702 c 4.125561,-0.0427 8.245515,-0.26491 12.363691,-0.49919 4.663432,-0.30567 9.329462,-0.54875 14.00356,-0.50406 0,0 -2.92892,-2.1285 -2.92892,-2.1285 v 0 c -4.642958,0.0343 -9.275218,0.32745 -13.9096,0.59537 -4.231032,0.20149 -8.471477,0.40304 -12.707046,0.21256 0,0 3.178315,2.32382 3.178315,2.32382 z" />
      <path
         style="fill:url(#linearGradient4124);fill-opacity:1;stroke-width:0.264583"
         id="path2043"
         d="m 88.341795,126.15322 c 0.25717,3.57488 -0.239223,7.15358 -0.692388,10.69209 -0.618926,4.33261 -1.404326,8.63873 -2.102109,12.95885 0,0 3.200159,1.69252 3.200159,1.69252 v 0 c 0.633283,-4.34022 1.365634,-8.66447 2.04094,-12.99823 0.503333,-3.50537 1.031955,-7.02387 1.086315,-10.57171 0,0 -3.532917,-1.77352 -3.532917,-1.77352 z" />
      <path
         style="fill:url(#linearGradient4124);fill-opacity:1;stroke-width:0.264583"
         id="path2051"
         d="m 115.14648,142.5778 c 1.52078,-0.36432 3.08232,-0.4106 4.63504,-0.3083 0.74117,0.12769 1.09843,0.14273 1.79056,0.44149 0.26257,0.11334 1.00439,0.5475 0.75156,0.41383 -4.20303,-2.222 -3.00082,-1.96963 -2.12129,-0.86018 0.15,0.18921 0.26299,0.40501 0.39449,0.60752 0.32767,0.72874 0.79842,1.90079 0.12157,2.60179 -0.10639,0.11019 -0.2533,0.17229 -0.37994,0.25844 -0.19055,0.0505 -0.37651,0.12353 -0.57165,0.15141 -0.9951,0.14217 -2.0553,-0.0139 -3.04574,-0.0986 -2.0961,-0.17911 -0.57584,-0.0684 -2.71036,-0.20921 -2.03114,-0.0813 -4.14271,-0.0541 -6.01197,0.82975 -0.113,0.10789 -0.26419,0.18651 -0.33901,0.32368 -0.17903,0.3282 -0.087,0.72983 0.2522,0.93583 3.81658,2.31759 2.81046,2.0011 5.43699,2.47056 0,0 -3.01266,-2.28675 -3.01266,-2.28675 v 0 c -2.41299,-0.59361 -1.30589,-0.46884 1.2056,1.2841 0.0877,0.0612 -0.61324,-0.13192 -0.53358,-0.34095 0.0402,-0.1055 0.16343,-0.15583 0.24514,-0.23374 1.80272,-0.84237 3.84189,-0.83202 5.79263,-0.74485 2.49758,0.18228 0.25746,0.009 2.72603,0.22662 1.03779,0.0913 2.1791,0.26659 3.2143,0.031 0.22944,-0.0522 0.44003,-0.16686 0.66004,-0.25028 0.15371,-0.12759 0.33078,-0.23139 0.46114,-0.38275 0.73075,-0.84847 0.39954,-2.07884 0.0328,-2.99546 -1.21744,-2.19469 -1.84284,-1.97432 -4.82874,-3.72736 -0.79731,-0.46811 -1.71871,-0.62499 -2.62274,-0.71854 -1.60766,-0.0685 -3.21635,0.005 -4.79739,0.32791 0,0 3.25501,2.25298 3.25501,2.25298 z" />
      <path
         style="fill:url(#linearGradient4124);fill-opacity:1;stroke-width:0.264583"
         id="path2053"
         d="m 139.44307,139.17844 c -2.14508,1.46087 -4.25262,2.97612 -6.38118,4.46096 -0.98677,0.72275 -2.03721,1.36331 -2.99727,2.12327 -0.1704,0.13488 -0.35446,0.26031 -0.48961,0.43049 -0.0794,0.0999 -0.24188,0.28593 -0.13638,0.35775 1.21821,0.82922 2.56748,1.44727 3.85122,2.17091 3.73375,-0.66516 7.4635,-1.31943 11.2429,-1.65939 0.89776,-0.0313 2.05689,-0.11764 2.97257,0.006 0.31949,0.0433 1.20966,0.41278 0.93664,0.2413 -3.05497,-1.9188 -2.84261,-2.4175 -2.84352,-0.72583 0,0 3.41682,1.78583 3.41682,1.78583 v 0 c 0.06,-0.33982 0.43255,-0.78437 0.17995,-1.01946 -2.88835,-2.68827 -4.34154,-2.66831 -7.6587,-2.42051 -2.10045,0.22481 -4.18042,0.51991 -6.2685,0.8397 -0.84975,0.13013 -2.96516,0.4679 -3.8957,0.55769 -0.40348,0.0389 -0.80988,0.0365 -1.21482,0.0548 0.92409,0.67595 1.82536,1.38428 2.77229,2.02785 0.0483,0.0328 -0.0712,-0.12155 -0.0396,-0.1706 0.10883,-0.16861 0.27415,-0.29407 0.42496,-0.42647 0.90594,-0.79533 1.93005,-1.44758 2.89093,-2.17069 2.13596,-1.5021 4.26202,-3.04225 6.55355,-4.30137 0,0 -3.31655,-2.16259 -3.31655,-2.16259 z" />
      <path
         style="fill:url(#linearGradient4124);fill-opacity:1;stroke-width:0.264583"
         id="path2057"
         d="m 159.78759,133.41315 c -0.2122,2.26084 -0.41962,4.52191 -0.65171,6.78085 -0.0459,0.4409 -0.0919,0.88181 -0.13781,1.32272 0,0 3.34982,1.74877 3.34982,1.74877 v 0 c 0.0417,-0.44266 0.0835,-0.88532 0.12523,-1.32798 0.22725,-2.22825 0.43526,-4.46323 0.80758,-6.67277 0,0 -3.49311,-1.85159 -3.49311,-1.85159 z" />
      <path
         style="fill:url(#linearGradient4124);fill-opacity:1;stroke-width:0.264583"
         id="path2059"
         d="m 164.94301,143.20235 c 1.51979,-2.12027 3.39828,-3.94555 5.33947,-5.67393 0,0 -3.15801,-1.96028 -3.15801,-1.96028 v 0 c -1.97311,1.76015 -3.86302,3.61158 -5.58718,5.61935 0,0 3.40572,2.01486 3.40572,2.01486 z" />
      <path
         style="fill:url(#linearGradient4124);fill-opacity:1;stroke-width:0.264583"
         id="path2061"
         d="m 167.46605,143.07275 c 1.99302,2.55505 4.0668,5.04577 6.10416,7.56539 0,0 3.3139,1.41454 3.3139,1.41454 v 0 c -1.96937,-2.4549 -3.98793,-4.87543 -5.8337,-7.42591 0,0 -3.58436,-1.55402 -3.58436,-1.55402 z" />
    </g>
  </g>
</svg>
